<svg width="126" height="32" viewBox="0 0 126 32" fill="none" xmlns="http://www.w3.org/2000/svg">
<path d="M13.1916 31.4C9.3516 31.4 6.33827 30.32 4.1516 28.16C1.9916 26 0.911602 22.88 0.911602 18.8V3H6.1116V18.6C6.1116 21.48 6.72494 23.5733 7.9516 24.88C9.20494 26.1867 10.9649 26.84 13.2316 26.84C15.4983 26.84 17.2449 26.1867 18.4716 24.88C19.6983 23.5733 20.3116 21.48 20.3116 18.6V3H25.4316V18.8C25.4316 22.88 24.3383 26 22.1516 28.16C19.9916 30.32 17.0049 31.4 13.1916 31.4ZM42.1541 12.28H36.6341V6.96H33.5141V12.28H29.4341V14.92H33.5141V25.2C33.5141 29.08 34.2341 31.48 38.6741 31.48C39.8341 31.48 41.2341 31.28 42.3141 30.8L42.1941 27.96C41.3541 28.4 40.3541 28.6 39.4341 28.6C36.6741 28.6 36.6341 26.68 36.6341 24.28V14.92H42.1541V12.28ZM45.9766 31H49.0966V21.88C49.0966 17.6 50.7766 14.92 54.5766 14.92C55.1366 14.92 55.7366 15 56.2566 15.16L56.4566 12C56.0166 11.84 55.5766 11.8 55.1766 11.8C52.0966 11.8 49.7766 13.52 48.9366 15.36H48.8566C48.8566 14.32 48.7766 13.28 48.7766 12.28H45.8166C45.8166 13.52 45.9766 15 45.9766 16.72V31ZM61.7591 16.72C63.2391 15.36 65.3191 14.68 67.3191 14.68C70.2391 14.68 71.9591 16.08 71.9591 18.8V19.36H70.7591C66.1591 19.36 58.9591 19.72 58.9591 25.92C58.9591 29.56 62.1191 31.48 65.9191 31.48C68.7591 31.48 70.8391 30.12 72.0791 28.2H72.1591C72.1591 29 72.1591 30.16 72.3591 31H75.3591C75.1991 30.04 75.0791 28.84 75.0791 27.76V19.72C75.0791 14.44 72.7591 11.8 67.2391 11.8C64.5191 11.8 61.7191 12.72 59.7991 14.68L61.7591 16.72ZM71.9591 22V23.2C71.8791 26.24 70.0391 28.84 66.4391 28.84C64.0791 28.84 62.3191 27.96 62.3191 25.6C62.3191 23.08 64.8791 22 68.8391 22H71.9591ZM96.7013 12.28H93.3413L87.7813 26.96H87.7013L81.8613 12.28H78.2213L85.8613 31H89.3013L96.7013 12.28ZM114.438 25.76C112.958 27.64 111.158 28.6 108.478 28.6C105.078 28.6 102.598 25.84 102.358 22.6H117.478V21.6C117.478 15.4 113.878 11.8 108.598 11.8C103.078 11.8 98.9982 15.84 98.9982 21.64C98.9982 27.08 102.598 31.48 108.478 31.48C111.958 31.48 114.598 30.44 116.798 27.6L114.438 25.76ZM102.358 19.96C102.758 16.8 105.038 14.68 108.478 14.68C111.918 14.68 113.998 16.8 114.118 19.96H102.358ZM122.585 31H125.705V0.759998H122.585V31Z" fill="white"/>
</svg>
